<svg version="1.1" xmlns="http://www.w3.org/2000/svg" xmlns:xlink="http://www.w3.org/1999/xlink" role="img" width="187" height="90" viewbox="0 0 187 90"><title>PNNO</title><desc>Generated by logo.svg, https://github.com/bubkoo/logo.svg</desc><path fill="#2b68a7" d="M-0.28 70.35L0.30 67.66L1.13 67.66Q3.24 67.66 4.94 66.86Q6.63 66.06 7.27 63.06L13.93 31.70Q14.18 30.67 14.18 29.90Q14.18 28.24 12.90 27.79Q11.62 27.34 9.58 27.34L8.74 27.34L9.32 24.66L25.70 24.66Q32.42 24.66 36.36 27.79Q40.30 30.93 40.30 37.01Q40.30 39.44 39.53 42.13Q38.76 44.82 36.68 47.18Q34.60 49.55 30.73 51.06Q26.86 52.56 20.71 52.56L15.98 52.56L13.67 63.31Q13.42 64.34 13.42 65.10Q13.42 66.77 14.70 67.22Q15.98 67.66 18.02 67.66L20.14 67.66L19.56 70.35L-0.28 70.35M16.62 49.55L20.01 49.55Q24.94 49.55 27.91 47.95Q30.89 46.35 32.20 43.54Q33.51 40.72 33.51 37.07Q33.51 32.02 31.11 29.87Q28.71 27.73 24.17 27.73L21.22 27.73L16.62 49.55ZM39.40 70.35L39.98 67.66L40.81 67.66Q42.92 67.66 44.62 66.86Q46.31 66.06 46.95 63.06L53.61 31.70Q53.86 30.67 53.86 29.90Q53.86 28.24 52.58 27.79Q51.30 27.34 49.26 27.34L48.42 27.34L49 24.66L60.65 24.66L76.14 59.98L82.15 31.70Q82.41 30.67 82.41 29.90Q82.41 28.24 81.13 27.79Q79.85 27.34 77.80 27.34L76.97 27.34L77.54 24.66L93.61 24.66L93.03 27.34L92.20 27.34Q90.02 27.34 88.33 28.14Q86.63 28.94 85.99 31.95L77.86 70.35L73.70 70.35L57.26 32.85L50.79 63.31Q50.54 64.34 50.54 65.10Q50.54 66.77 51.82 67.22Q53.10 67.66 55.14 67.66L55.98 67.66L55.40 70.35L39.40 70.35ZM88.23 70.35L88.81 67.66L89.64 67.66Q91.75 67.66 93.45 66.86Q95.14 66.06 95.78 63.06L102.44 31.70Q102.70 30.67 102.70 29.90Q102.70 28.24 101.42 27.79Q100.14 27.34 98.09 27.34L97.26 27.34L97.83 24.66L109.48 24.66L124.97 59.98L130.98 31.70Q131.24 30.67 131.24 29.90Q131.24 28.24 129.96 27.79Q128.68 27.34 126.63 27.34L125.80 27.34L126.38 24.66L142.44 24.66L141.86 27.34L141.03 27.34Q138.86 27.34 137.16 28.14Q135.46 28.94 134.82 31.95L126.70 70.35L122.54 70.35L106.09 32.85L99.62 63.31Q99.37 64.34 99.37 65.10Q99.37 66.77 100.65 67.22Q101.93 67.66 103.98 67.66L104.81 67.66L104.23 70.35L88.23 70.35ZM158.44 71.06Q153.70 71.06 149.90 69.04Q146.09 67.02 143.88 63.06Q141.67 59.09 141.67 53.33Q141.67 49.62 142.70 45.58Q143.72 41.55 145.80 37.71Q147.88 33.87 150.95 30.77Q154.02 27.66 158.09 25.81Q162.15 23.95 167.27 23.95Q171.69 23.95 175.46 25.81Q179.24 27.66 181.54 31.54Q183.85 35.41 183.85 41.55Q183.85 45.07 182.86 49.10Q181.86 53.14 179.85 57.01Q177.83 60.88 174.79 64.08Q171.75 67.28 167.66 69.17Q163.56 71.06 158.44 71.06M158.82 67.54Q162.54 67.54 165.45 65.68Q168.36 63.82 170.50 60.78Q172.65 57.74 174.06 54.06Q175.46 50.38 176.14 46.67Q176.81 42.96 176.81 39.82Q176.81 33.36 173.96 30.38Q171.11 27.41 166.76 27.41Q163.05 27.41 160.10 29.26Q157.16 31.12 155.02 34.16Q152.87 37.20 151.46 40.88Q150.06 44.56 149.35 48.27Q148.65 51.98 148.65 55.12Q148.65 59.47 149.99 62.22Q151.34 64.98 153.67 66.26Q156.01 67.54 158.82 67.54Z"></path></svg>