<svg version="1.1" xmlns="http://www.w3.org/2000/svg" xmlns:xlink="http://www.w3.org/1999/xlink" role="img" width="153" height="90" viewbox="0 0 153 90"><title>pnno</title><desc>Generated by logo.svg, https://github.com/bubkoo/logo.svg</desc><path fill="#2b68a7" d="M0.55 85.71L9.06 45.14Q9.32 43.86 9.48 42.96Q9.64 42.06 9.64 41.74Q9.64 39.82 8.33 39.28Q7.02 38.74 5.16 38.74L4.65 38.74L5.22 36.05L16.55 36.05L15.02 44.56L15.34 44.56Q16.62 42.06 18.25 39.98Q19.88 37.90 22.02 36.66Q24.17 35.41 27.05 35.41Q30.95 35.41 33.06 38.38Q35.18 41.36 35.18 46.99Q35.18 49.74 34.41 52.98Q33.64 56.21 32.14 59.41Q30.63 62.61 28.36 65.23Q26.09 67.86 23.02 69.42Q19.94 70.99 16.10 70.99Q14.25 70.99 12.65 70.61Q11.05 70.22 9.83 69.52Q9.83 69.52 9.70 70.51Q9.58 71.50 9.32 72.59L8.42 76.50Q8.30 76.88 8.07 78.13Q7.85 79.38 7.85 80.08Q7.85 82 9.16 82.51Q10.47 83.02 12.33 83.02L13.16 83.02L12.58 85.71L0.55 85.71M15.91 68.11Q18.34 68.11 20.36 66.70Q22.38 65.30 23.91 62.93Q25.45 60.56 26.50 57.78Q27.56 54.99 28.10 52.14Q28.65 49.30 28.65 46.93Q28.65 45.07 28.30 43.34Q27.94 41.62 27.08 40.53Q26.22 39.44 24.62 39.44Q22.76 39.44 20.97 40.85Q19.18 42.26 17.64 44.46Q16.10 46.67 15.02 49.10Q13.93 51.54 13.48 53.65L10.86 65.81Q11.43 66.51 12.78 67.31Q14.12 68.11 15.91 68.11ZM67.37 70.99Q64.55 70.99 63.05 69.20Q61.54 67.41 61.54 64.59Q61.54 61.65 62.76 55.95L63.85 50.96Q64.04 50.13 64.36 48.75Q64.68 47.38 64.94 45.94Q65.19 44.50 65.19 43.34Q65.19 42.06 64.65 40.82Q64.10 39.57 62.25 39.57Q60.20 39.57 58.25 41.04Q56.30 42.51 54.60 44.82Q52.90 47.12 51.72 49.58Q50.54 52.05 50.15 53.97L46.70 70.35L40.74 70.35L46.12 44.62Q46.31 43.73 46.41 42.90Q46.50 42.06 46.50 41.74Q46.50 39.82 45.16 39.28Q43.82 38.74 42.02 38.74L41.51 38.74L42.09 36.05L53.93 36.05L52.20 44.11L52.84 44.11Q55.46 39.89 58.18 37.68Q60.90 35.47 64.49 35.47Q68.26 35.47 69.80 37.62Q71.34 39.76 71.34 42.58Q71.34 44.18 70.92 46.06Q70.50 47.95 70.18 49.62L68.52 57.17Q68.14 58.96 67.91 60.69Q67.69 62.42 67.69 63.89Q67.69 66.96 69.93 66.96Q71.78 66.96 74.02 65.49L75.18 67.34Q73.64 68.62 71.75 69.81Q69.86 70.99 67.37 70.99ZM105.70 70.99Q102.89 70.99 101.38 69.20Q99.88 67.41 99.88 64.59Q99.88 61.65 101.10 55.95L102.18 50.96Q102.38 50.13 102.70 48.75Q103.02 47.38 103.27 45.94Q103.53 44.50 103.53 43.34Q103.53 42.06 102.98 40.82Q102.44 39.57 100.58 39.57Q98.54 39.57 96.58 41.04Q94.63 42.51 92.94 44.82Q91.24 47.12 90.06 49.58Q88.87 52.05 88.49 53.97L85.03 70.35L79.08 70.35L84.46 44.62Q84.65 43.73 84.74 42.90Q84.84 42.06 84.84 41.74Q84.84 39.82 83.50 39.28Q82.15 38.74 80.36 38.74L79.85 38.74L80.42 36.05L92.26 36.05L90.54 44.11L91.18 44.11Q93.80 39.89 96.52 37.68Q99.24 35.47 102.82 35.47Q106.60 35.47 108.14 37.62Q109.67 39.76 109.67 42.58Q109.67 44.18 109.26 46.06Q108.84 47.95 108.52 49.62L106.86 57.17Q106.47 58.96 106.25 60.69Q106.02 62.42 106.02 63.89Q106.02 66.96 108.26 66.96Q110.12 66.96 112.36 65.49L113.51 67.34Q111.98 68.62 110.09 69.81Q108.20 70.99 105.70 70.99ZM129.64 70.99Q124.20 70.99 120.78 67.70Q117.35 64.40 117.35 57.74Q117.35 54.22 118.50 50.32Q119.66 46.42 122.02 43.02Q124.39 39.63 127.98 37.52Q131.56 35.41 136.42 35.41Q139.82 35.41 142.57 36.75Q145.32 38.10 146.95 41.04Q148.58 43.98 148.58 48.66Q148.58 51.41 147.88 54.45Q147.18 57.49 145.70 60.43Q144.23 63.38 141.99 65.74Q139.75 68.11 136.65 69.55Q133.54 70.99 129.64 70.99M130.34 67.73Q133.48 67.73 135.69 65.71Q137.90 63.70 139.27 60.53Q140.65 57.36 141.29 53.90Q141.93 50.45 141.93 47.57Q141.93 42.77 140.26 40.72Q138.60 38.67 135.66 38.67Q133.16 38.67 131.24 40.02Q129.32 41.36 127.94 43.57Q126.57 45.78 125.70 48.46Q124.84 51.15 124.42 53.87Q124.01 56.59 124.01 58.90Q124.01 63.76 125.74 65.74Q127.46 67.73 130.34 67.73Z"></path></svg>